<svg preserveAspectRatio="none" width="100%" height="100%" overflow="visible" style="display: block;" viewBox="0 0 9298.56 1501.06" fill="none" xmlns="http://www.w3.org/2000/svg">
<g id="SINUS" opacity="0.6">
<path id="Vector" opacity="0.2" d="M0 750.53C0 750.53 722.39 750.53 1389.23 433.949C2035.66 127.066 2459.16 539.855 2589.82 697.739C2611.73 724.236 2654.99 726.062 2679.7 701.594L3104.54 281.218C3104.54 281.218 3371.17 0.75 3611.99 0.75C3889.82 0.75 4056.55 200.672 4167.69 300.654C4371.43 483.94 4575.21 667.226 4853.04 650.548C5130.87 633.871 5672.73 326.461 5908.85 283.977C6186.68 233.986 6483.05 433.949 6927.61 567.244C7541.38 751.26 9298.56 750.53 9298.56 750.53" stroke="var(--stroke-0, white)" stroke-width="1.5" stroke-miterlimit="10"/>
<path id="Vector_2" opacity="0.3" d="M9298.52 750.53C9298.52 750.53 7541.38 751.139 6927.57 600.558C6483.01 491.487 6186.64 327.922 5908.81 368.823C5672.69 403.598 5130.83 655.093 4853 668.727C4575.17 682.361 4371.39 532.389 4167.65 382.457C4056.51 300.654 3889.82 137.089 3611.95 137.089C3371.17 137.089 3104.5 366.592 3104.5 366.592L2679.66 710.521C2654.95 730.526 2611.69 729.025 2589.78 707.356C2459.12 578.16 2035.62 240.438 1389.19 491.528C722.391 750.53 0 750.53 0 750.53" stroke="var(--stroke-0, white)" stroke-width="1.5" stroke-miterlimit="10"/>
<path id="Vector_3" opacity="0.4" d="M9298.52 750.53C9298.52 750.53 7541.38 751.017 6927.57 633.912C6483.01 549.106 6186.64 421.857 5908.81 453.669C5672.69 480.693 5130.83 676.315 4853 686.946C4575.17 697.536 4371.39 580.918 4167.65 464.3C4056.51 400.676 3889.82 273.467 3611.95 273.467C3371.17 273.467 3104.5 451.965 3104.5 451.965L2679.66 719.488C2654.95 735.029 2611.69 733.893 2589.78 717.013C2459.12 616.504 2035.62 353.85 1389.19 549.147C722.391 750.53 0 750.53 0 750.53" stroke="var(--stroke-0, white)" stroke-width="1.5" stroke-miterlimit="10"/>
<path id="Vector_4" opacity="0.5" d="M9298.52 750.53C9298.52 750.53 7541.38 750.855 6927.57 667.226C6483.01 606.644 6186.64 515.752 5908.81 538.475C5672.69 557.79 5130.83 697.537 4853 705.084C4575.17 712.672 4371.39 629.367 4167.65 546.022C4056.51 500.576 3889.82 409.684 3611.95 409.684C3371.17 409.684 3104.5 537.177 3104.5 537.177L2679.66 728.253C2654.95 739.371 2611.69 738.56 2589.78 726.508C2459.12 654.728 2035.62 467.1 1389.19 606.604C722.391 750.53 0 750.53 0 750.53" stroke="var(--stroke-0, white)" stroke-width="1.5" stroke-miterlimit="10"/>
<path id="Vector_5" opacity="0.5" d="M9298.52 750.529C9298.52 750.529 7541.38 750.732 6927.57 700.539C6483.01 664.182 6186.64 609.646 5908.81 623.28C5672.69 634.885 5130.83 718.717 4853 723.262C4575.17 727.806 4371.39 677.816 4167.65 627.825C4056.51 600.557 3889.82 546.022 3611.95 546.022C3371.17 546.022 3104.5 622.509 3104.5 622.509L2679.66 737.139C2654.95 743.794 2611.69 743.307 2589.78 736.084C2459.12 693.032 2035.62 580.431 1389.19 664.141C722.391 750.529 0 750.529 0 750.529" stroke="var(--stroke-0, white)" stroke-width="1.5" stroke-miterlimit="10"/>
<path id="Vector_6" opacity="0.5" d="M9298.52 750.53C9298.52 750.53 7541.38 750.611 6927.57 733.853C6483.01 721.72 6186.64 703.542 5908.81 708.087C5672.69 711.941 5130.83 739.899 4853 741.4C4575.17 742.902 4371.39 726.265 4167.65 709.588C4056.51 700.499 3889.82 682.32 3611.95 682.32C3371.17 682.32 3104.5 707.803 3104.5 707.803L2679.66 746.026C2654.95 748.258 2611.69 748.095 2589.78 745.661C2459.12 731.297 2035.62 693.763 1389.19 721.68C722.391 750.53 0 750.53 0 750.53" stroke="var(--stroke-0, white)" stroke-width="1.5" stroke-miterlimit="10"/>
<path id="Vector_7" opacity="0.6" d="M9298.52 750.53C9298.52 750.53 7541.38 750.449 6927.57 767.207C6483.01 779.34 6186.64 797.518 5908.81 792.974C5672.69 789.119 5130.83 761.161 4853 759.66C4575.17 758.159 4371.39 774.795 4167.65 791.472C4056.51 800.562 3889.82 818.74 3611.95 818.74C3371.17 818.74 3104.5 793.258 3104.5 793.258L2679.66 755.034C2654.95 752.803 2611.69 752.965 2589.78 755.399C2459.12 769.764 2035.62 807.297 1389.19 779.38C722.391 750.53 0 750.53 0 750.53" stroke="var(--stroke-0, white)" stroke-width="1.5" stroke-miterlimit="10"/>
<path id="Vector_8" opacity="0.5" d="M9298.52 750.53C9298.52 750.53 7541.38 750.327 6927.57 800.521C6483.01 836.878 6186.64 891.413 5908.81 877.779C5672.69 866.174 5130.83 782.343 4853 777.798C4575.17 773.253 4371.39 823.244 4167.65 873.235C4056.51 900.503 3889.82 955.038 3611.95 955.038C3371.17 955.038 3104.5 878.55 3104.5 878.55L2679.66 763.921C2654.95 757.266 2611.69 757.753 2589.78 764.976C2459.12 808.028 2035.62 920.629 1389.19 836.918C722.391 750.53 0 750.53 0 750.53" stroke="var(--stroke-0, white)" stroke-width="1.5" stroke-miterlimit="10"/>
<path id="Vector_9" opacity="0.5" d="M9298.52 750.53C9298.52 750.53 7541.38 750.206 6927.57 833.835C6483.01 894.416 6186.64 985.308 5908.81 962.585C5672.69 943.271 5130.83 803.524 4853 795.976C4575.17 788.389 4371.39 871.693 4167.65 955.038C4056.51 1000.48 3889.82 1091.38 3611.95 1091.38C3371.17 1091.38 3104.5 963.884 3104.5 963.884L2679.66 772.807C2654.95 761.689 2611.69 762.5 2589.78 774.552C2459.12 846.332 2035.62 1033.96 1389.19 894.457C722.391 750.53 0 750.53 0 750.53" stroke="var(--stroke-0, white)" stroke-width="1.5" stroke-miterlimit="10"/>
<path id="Vector_10" opacity="0.4" d="M9298.52 750.53C9298.52 750.53 7541.38 750.043 6927.57 867.148C6483.01 951.954 6186.64 1079.2 5908.81 1047.39C5672.69 1020.37 5130.83 824.745 4853 814.114C4575.17 803.524 4371.39 920.142 4167.65 1036.76C4056.51 1100.38 3889.82 1227.59 3611.95 1227.59C3371.17 1227.59 3104.5 1049.1 3104.5 1049.1L2679.66 781.572C2654.95 766.031 2611.69 767.167 2589.78 784.047C2459.12 884.556 2035.62 1147.21 1389.19 951.913C722.391 750.53 0 750.53 0 750.53" stroke="var(--stroke-0, white)" stroke-width="1.5" stroke-miterlimit="10"/>
<path id="Vector_11" opacity="0.3" d="M9298.52 750.53C9298.52 750.53 7541.38 749.922 6927.57 900.503C6483.01 1009.57 6186.64 1173.14 5908.81 1132.24C5672.69 1097.46 5130.83 845.967 4853 832.333C4575.17 818.7 4371.39 968.672 4167.65 1118.6C4056.51 1200.41 3889.82 1363.97 3611.95 1363.97C3371.17 1363.97 3104.5 1134.47 3104.5 1134.47L2679.66 790.539C2654.95 770.535 2611.69 772.036 2589.78 793.704C2459.12 922.901 2035.62 1260.62 1389.19 1009.53C722.391 750.53 0 750.53 0 750.53" stroke="var(--stroke-0, white)" stroke-width="1.5" stroke-miterlimit="10"/>
<path id="Vector_12" opacity="0.2" d="M9298.52 750.53C9298.52 750.53 7541.38 749.759 6927.57 933.816C6483.01 1067.11 6186.64 1267.03 5908.81 1217.08C5672.69 1174.6 5130.83 867.189 4853 850.512C4575.17 833.835 4371.39 1017.12 4167.65 1200.41C4056.51 1300.39 3889.82 1500.31 3611.95 1500.31C3371.17 1500.31 3104.5 1219.8 3104.5 1219.8L2679.66 799.426C2654.95 774.998 2611.69 776.784 2589.78 803.28C2459.12 961.206 2035.62 1373.99 1389.19 1067.07C722.391 750.53 0 750.53 0 750.53" stroke="var(--stroke-0, white)" stroke-width="1.5" stroke-miterlimit="10"/>
</g>
</svg>
